<svg width="24" height="24" viewBox="0 0 24 24" fill="none" xmlns="http://www.w3.org/2000/svg">
<path d="M5.24631 3.63435C6.00846 3.22675 6.75812 3.10009 8.32777 3.10009H10.9811C10.9874 3.09996 10.9937 3.09989 11 3.09989C11.4971 3.09989 11.9 3.50283 11.9 3.99989C11.9 4.49695 11.4971 4.89989 11 4.89989C11 4.89989 11 4.89989 11 4.89989L8.32777 4.90009C6.8411 4.90009 6.45717 5.02803 6.09519 5.22162C5.75934 5.40123 5.50114 5.65942 5.32153 5.99527C5.12794 6.35725 5 6.74119 5 8.22786L5 15.7723C5 17.259 5.12794 17.6429 5.32153 18.0049C5.50114 18.3407 5.75934 18.5989 6.09519 18.7786C6.45717 18.9721 6.8411 19.1001 8.32777 19.1001L10.9811 19.1001C10.9874 19.1 10.9937 19.0999 11 19.0999C11.4971 19.0999 11.9 19.5028 11.9 19.9999C11.9 20.4969 11.4971 20.8999 11 20.8999C11 20.8999 11 20.8999 11 20.8999L8.32777 20.9001C6.75812 20.9001 6.00846 20.7734 5.24631 20.3658C4.59678 20.0184 4.08164 19.5033 3.73426 18.8538C3.32666 18.0916 3.2 17.342 3.2 15.7723V8.22786C3.2 6.65821 3.32666 5.90855 3.73426 5.1464C4.08164 4.49686 4.59678 3.98173 5.24631 3.63435Z" fill="#3F8AE0"/>
<path d="M14.6364 8.63637L12.1729 11.0999H20.1C20.5971 11.0999 21 11.5028 21 11.9999C21 12.4969 20.5971 12.8999 20.1 12.8999H12.1727L14.6364 15.3636C14.9879 15.7151 14.9879 16.2849 14.6364 16.6364C14.2849 16.9878 13.7151 16.9878 13.3636 16.6364L9.3636 12.6364C9.01213 12.2849 9.01213 11.7151 9.3636 11.3636L13.3636 7.36358C13.7151 7.01211 14.2849 7.01211 14.6364 7.36358C14.9879 7.71505 14.9879 8.2849 14.6364 8.63637Z" fill="#3F8AE0"/>
</svg>
