<svg fill="none" height="24" viewBox="0 0 25 24" width="25" xmlns="http://www.w3.org/2000/svg">
    <path
        d="M13.4682 2.30659L21.1282 9.58361C21.6392 10.0691 21.9286 10.743 21.9286 11.4479V18.8548C21.9286 20.0383 20.9692 20.9976 19.7857 20.9976H14.6429C14.1695 20.9976 13.7857 20.6139 13.7857 20.1405V15.4261C13.7857 14.716 13.2101 14.1404 12.5 14.1404C11.7899 14.1404 11.2143 14.716 11.2143 15.4261V20.1405C11.2143 20.6139 10.8305 20.9976 10.3571 20.9976H5.21428C4.03082 20.9976 3.07143 20.0383 3.07143 18.8548V11.4479C3.07143 10.743 3.36076 10.0691 3.87178 9.58361L11.5318 2.30659C12.0744 1.79116 12.9256 1.79116 13.4682 2.30659ZM12.5 3.75134L5.0525 10.8265C4.88216 10.9883 4.78571 11.2129 4.78571 11.4479V18.8548C4.78571 19.0915 4.97759 19.2834 5.21428 19.2834H9.5V15.4261C9.5 13.7692 10.8431 12.4261 12.5 12.4261C14.1569 12.4261 15.5 13.7692 15.5 15.4261V19.2834H19.7857C20.0224 19.2834 20.2143 19.0915 20.2143 18.8548V11.4479C20.2143 11.2129 20.1178 10.9883 19.9475 10.8265L12.5 3.75134Z"
        fill="#0077FF" />
</svg>
