<svg width="24" height="24" viewBox="0 0 24 24" fill="none" xmlns="http://www.w3.org/2000/svg">
<path fill-rule="evenodd" clip-rule="evenodd" d="M13.7944 4.69011L13.818 4.66654L14.6665 3.81801L14.6901 3.79444C14.9669 3.51759 15.2119 3.27257 15.4315 3.08611C15.6654 2.88755 15.9291 2.70311 16.2583 2.59613C16.7403 2.43951 17.2596 2.43951 17.7416 2.59613C18.0708 2.70311 18.3345 2.88755 18.5684 3.08611C18.788 3.27257 19.033 3.51759 19.3098 3.79444L19.3334 3.81801L20.1819 4.66654L20.2055 4.69011L20.2055 4.69016C20.4824 4.96696 20.7274 5.21194 20.9138 5.43156C21.1124 5.66545 21.2968 5.9291 21.4038 6.25835C21.5604 6.74037 21.5604 7.25961 21.4038 7.74163C21.2968 8.07087 21.1124 8.33453 20.9138 8.56841C20.7274 8.78805 20.4823 9.03305 20.2055 9.30987L20.1819 9.33344L19.3334 10.182L19.3098 10.2055C19.033 10.4824 18.788 10.7274 18.5684 10.9139C18.3345 11.1124 18.0708 11.2969 17.7416 11.4038C17.2596 11.5605 16.7403 11.5605 16.2583 11.4038C15.9291 11.2969 15.6654 11.1124 15.4315 10.9139C15.2119 10.7274 14.9669 10.4824 14.6901 10.2055L14.6665 10.182L13.818 9.33344L13.7944 9.30987L13.7944 9.30986L13.7943 9.30982C13.5175 9.03302 13.2725 8.78804 13.0861 8.56841C12.8875 8.33453 12.7031 8.07087 12.5961 7.74163C12.4395 7.2596 12.4395 6.74037 12.5961 6.25835C12.7031 5.9291 12.8875 5.66545 13.0861 5.43156C13.2725 5.21193 13.5175 4.96693 13.7944 4.69012L13.7944 4.69011ZM14.4583 6.59648C14.332 6.74523 14.3123 6.80133 14.308 6.81458C14.2688 6.93508 14.2688 7.06489 14.308 7.1854C14.3123 7.19865 14.332 7.25475 14.4583 7.40349C14.5914 7.56028 14.7832 7.75313 15.0908 8.06065L15.9393 8.90918C16.2468 9.21669 16.4397 9.40856 16.5964 9.54166C16.7452 9.66793 16.8013 9.68764 16.8145 9.69194C16.935 9.7311 17.0648 9.7311 17.1854 9.69194C17.1986 9.68764 17.2547 9.66793 17.4035 9.54166C17.5602 9.40856 17.7531 9.21669 18.0606 8.90918L18.9091 8.06065C19.2166 7.75314 19.4085 7.56028 19.5416 7.40349C19.6679 7.25475 19.6876 7.19865 19.6919 7.1854C19.7311 7.06489 19.7311 6.93508 19.6919 6.81458C19.6876 6.80133 19.6679 6.74523 19.5416 6.59648C19.4085 6.4397 19.2166 6.24684 18.9091 5.93933L18.0606 5.0908C17.7531 4.78329 17.5602 4.59142 17.4035 4.45832C17.2547 4.33204 17.1986 4.31234 17.1854 4.30803C17.0648 4.26888 16.935 4.26888 16.8145 4.30803C16.8013 4.31234 16.7452 4.33204 16.5964 4.45832C16.4397 4.59142 16.2468 4.78329 15.9393 5.0908L15.0908 5.93933C14.7832 6.24684 14.5914 6.4397 14.4583 6.59648ZM7.59998 10.9L7.63331 10.9C8.02482 10.9 8.37131 10.9 8.65846 10.8766C8.96425 10.8516 9.2811 10.7956 9.58956 10.6384C10.0411 10.4083 10.4083 10.0412 10.6384 9.58957C10.7956 9.28111 10.8516 8.96426 10.8766 8.65847C10.9 8.37133 10.9 8.02485 10.9 7.63335V7.63334V7.63333V7.63332L10.9 7.59999V6.39999L10.9 6.36665C10.9 5.97515 10.9 5.62866 10.8766 5.3415C10.8516 5.03572 10.7956 4.71887 10.6384 4.41041C10.4083 3.95882 10.0411 3.59167 9.58956 3.36157C9.2811 3.20441 8.96425 3.1484 8.65846 3.12341C8.37131 3.09995 8.02483 3.09997 7.63332 3.09999H7.63332L7.59998 3.09999L6.39998 3.09999L6.36664 3.09999H6.36663C5.97513 3.09997 5.62865 3.09995 5.34149 3.12341C5.03571 3.1484 4.71886 3.20441 4.4104 3.36157C3.95881 3.59167 3.59166 3.95882 3.36156 4.41041C3.2044 4.71887 3.14839 5.03572 3.1234 5.3415C3.09994 5.62864 3.09996 5.97511 3.09998 6.36658V6.36665L3.09998 6.39999L3.09998 7.59999L3.09998 7.63332V7.63339C3.09996 8.02487 3.09994 8.37133 3.1234 8.65847C3.14839 8.96426 3.2044 9.28111 3.36156 9.58957C3.59166 10.0412 3.95881 10.4083 4.4104 10.6384C4.71886 10.7956 5.03571 10.8516 5.34149 10.8766C5.62865 10.9 5.97514 10.9 6.36664 10.9L6.39998 10.9H7.59998ZM8.77237 9.03459C8.75996 9.04092 8.70636 9.06665 8.51189 9.08254C8.30691 9.09929 8.03487 9.09999 7.59998 9.09999L6.39998 9.09999C5.96509 9.09999 5.69305 9.09929 5.48807 9.08254C5.2936 9.06665 5.24 9.04092 5.22758 9.03459C5.11469 8.97707 5.0229 8.88528 4.96537 8.77238C4.95905 8.75997 4.93331 8.70637 4.91743 8.5119C4.90068 8.30692 4.89998 8.03488 4.89998 7.59999L4.89998 6.39999C4.89998 5.9651 4.90068 5.69306 4.91743 5.48808C4.93331 5.29361 4.95905 5.24001 4.96537 5.22759C5.0229 5.1147 5.11469 5.02291 5.22758 4.96538C5.24 4.95906 5.2936 4.93332 5.48807 4.91744C5.69305 4.90069 5.96509 4.89999 6.39998 4.89999H7.59998C8.03487 4.89999 8.30691 4.90069 8.51189 4.91744C8.70636 4.93332 8.75996 4.95906 8.77237 4.96538C8.88527 5.02291 8.97706 5.1147 9.03458 5.22759C9.04091 5.24001 9.06664 5.29361 9.08253 5.48808C9.09928 5.69306 9.09998 5.9651 9.09998 6.39999L9.09998 7.59999C9.09998 8.03488 9.09928 8.30692 9.08253 8.5119C9.06664 8.70637 9.04091 8.75997 9.03458 8.77238C8.97706 8.88528 8.88527 8.97707 8.77237 9.03459ZM7.59998 20.9L7.63331 20.9H7.63341C8.02488 20.9 8.37133 20.9 8.65846 20.8766C8.96425 20.8516 9.2811 20.7956 9.58956 20.6384C10.0411 20.4083 10.4083 20.0412 10.6384 19.5896C10.7956 19.2811 10.8516 18.9643 10.8766 18.6585C10.9 18.3713 10.9 18.0248 10.9 17.6334V17.6333V17.6333V17.6333L10.9 17.6V16.4L10.9 16.3667C10.9 15.9752 10.9 15.6287 10.8766 15.3415C10.8516 15.0357 10.7956 14.7189 10.6384 14.4104C10.4083 13.9588 10.0411 13.5917 9.58956 13.3616C9.2811 13.2044 8.96425 13.1484 8.65846 13.1234C8.37133 13.1 8.02486 13.1 7.63339 13.1H7.63338H7.63337H7.63331L7.59998 13.1H6.39998L6.36664 13.1H6.36659H6.36658H6.36657C5.97509 13.1 5.62863 13.1 5.34149 13.1234C5.03571 13.1484 4.71886 13.2044 4.4104 13.3616C3.95881 13.5917 3.59166 13.9588 3.36156 14.4104C3.2044 14.7189 3.14839 15.0357 3.1234 15.3415C3.09994 15.6286 3.09996 15.9751 3.09998 16.3666V16.3667L3.09998 16.4L3.09998 17.6L3.09998 17.6333V17.6334C3.09996 18.0249 3.09994 18.3713 3.1234 18.6585C3.14839 18.9643 3.2044 19.2811 3.36156 19.5896C3.59166 20.0412 3.95881 20.4083 4.4104 20.6384C4.71886 20.7956 5.03571 20.8516 5.34149 20.8766C5.62862 20.9 5.97508 20.9 6.36654 20.9H6.36664L6.39998 20.9H7.59998ZM8.77237 19.0346C8.75996 19.0409 8.70636 19.0667 8.51189 19.0825C8.30691 19.0993 8.03487 19.1 7.59998 19.1H6.39998C5.96509 19.1 5.69305 19.0993 5.48807 19.0825C5.2936 19.0667 5.24 19.0409 5.22758 19.0346C5.11469 18.9771 5.0229 18.8853 4.96537 18.7724C4.95905 18.76 4.93331 18.7064 4.91743 18.5119C4.90068 18.3069 4.89998 18.0349 4.89998 17.6L4.89998 16.4C4.89998 15.9651 4.90068 15.6931 4.91743 15.4881C4.93331 15.2936 4.95905 15.24 4.96537 15.2276C5.0229 15.1147 5.11469 15.0229 5.22758 14.9654C5.24 14.9591 5.2936 14.9333 5.48807 14.9174C5.69305 14.9007 5.96509 14.9 6.39998 14.9H7.59998C8.03487 14.9 8.30691 14.9007 8.51189 14.9174C8.70636 14.9333 8.75996 14.9591 8.77237 14.9654C8.88527 15.0229 8.97706 15.1147 9.03458 15.2276C9.04091 15.24 9.06664 15.2936 9.08253 15.4881C9.09928 15.6931 9.09998 15.9651 9.09998 16.4L9.09998 17.6C9.09998 18.0349 9.09928 18.3069 9.08253 18.5119C9.06664 18.7064 9.04091 18.76 9.03458 18.7724C8.97706 18.8853 8.88527 18.9771 8.77237 19.0346ZM17.6 20.9L17.6333 20.9H17.6334C18.0249 20.9 18.3713 20.9 18.6585 20.8766C18.9642 20.8516 19.2811 20.7956 19.5896 20.6384C20.0411 20.4083 20.4083 20.0412 20.6384 19.5896C20.7956 19.2811 20.8516 18.9643 20.8766 18.6585C20.9 18.3713 20.9 18.0248 20.9 17.6333L20.9 17.6V16.4L20.9 16.3667C20.9 15.9751 20.9 15.6287 20.8766 15.3415C20.8516 15.0357 20.7956 14.7189 20.6384 14.4104C20.4083 13.9588 20.0411 13.5917 19.5896 13.3616C19.2811 13.2044 18.9642 13.1484 18.6585 13.1234C18.3713 13.1 18.0249 13.1 17.6334 13.1H17.6333L17.6 13.1H16.4L16.3666 13.1H16.3666C15.9751 13.1 15.6286 13.1 15.3415 13.1234C15.0357 13.1484 14.7189 13.2044 14.4104 13.3616C13.9588 13.5917 13.5917 13.9588 13.3616 14.4104C13.2044 14.7189 13.1484 15.0357 13.1234 15.3415C13.0999 15.6287 13.1 15.9751 13.1 16.3667L13.1 16.4V17.6L13.1 17.6333C13.1 18.0248 13.0999 18.3713 13.1234 18.6585C13.1484 18.9643 13.2044 19.2811 13.3616 19.5896C13.5917 20.0412 13.9588 20.4083 14.4104 20.6384C14.7189 20.7956 15.0357 20.8516 15.3415 20.8766C15.6286 20.9 15.9751 20.9 16.3665 20.9H16.3666L16.4 20.9H17.6ZM18.7724 19.0346C18.76 19.0409 18.7064 19.0667 18.5119 19.0825C18.3069 19.0993 18.0349 19.1 17.6 19.1H16.4C15.9651 19.1 15.693 19.0993 15.4881 19.0825C15.2936 19.0667 15.24 19.0409 15.2276 19.0346C15.1147 18.9771 15.0229 18.8853 14.9654 18.7724C14.959 18.76 14.9333 18.7064 14.9174 18.5119C14.9007 18.3069 14.9 18.0349 14.9 17.6V16.4C14.9 15.9651 14.9007 15.6931 14.9174 15.4881C14.9333 15.2936 14.959 15.24 14.9654 15.2276C15.0229 15.1147 15.1147 15.0229 15.2276 14.9654C15.24 14.9591 15.2936 14.9333 15.4881 14.9174C15.693 14.9007 15.9651 14.9 16.4 14.9H17.6C18.0349 14.9 18.3069 14.9007 18.5119 14.9174C18.7064 14.9333 18.76 14.9591 18.7724 14.9654C18.8853 15.0229 18.9771 15.1147 19.0346 15.2276C19.0409 15.24 19.0666 15.2936 19.0825 15.4881C19.0993 15.6931 19.1 15.9651 19.1 16.4V17.6C19.1 18.0349 19.0993 18.3069 19.0825 18.5119C19.0666 18.7064 19.0409 18.76 19.0346 18.7724C18.9771 18.8853 18.8853 18.9771 18.7724 19.0346Z" fill="#3F8AE0"/>
</svg>
